<?xml version="1.0" encoding="UTF-8"?>
<svg version="1.1" xmlns="http://www.w3.org/2000/svg" width="588" height="588">
<path d="M0 0 C0.98097656 0.76828125 1.96195312 1.5365625 2.97265625 2.328125 C19.0192304 15.16538432 34.41936354 29.73946987 47 46 C47.79792969 47.00417969 48.59585938 48.00835937 49.41796875 49.04296875 C63.53203445 66.91656832 75.2447846 86.44136562 85 107 C85.48267334 107.99725098 85.48267334 107.99725098 85.97509766 109.01464844 C102.23516868 142.7961386 112.0131983 181.66494424 112.203125 219.2578125 C112.21013931 220.19590759 112.21715363 221.13400269 112.22438049 222.1005249 C112.24177033 225.10873281 112.24823224 228.11674368 112.25 231.125 C112.25101212 232.66900482 112.25101212 232.66900482 112.25204468 234.24420166 C112.23594072 249.7061098 111.78171095 264.75079627 109 280 C108.74259033 281.46058838 108.74259033 281.46058838 108.47998047 282.95068359 C103.06110719 312.99903813 93.51054775 342.09026317 79 369 C78.42813965 370.07556152 78.42813965 370.07556152 77.84472656 371.17285156 C67.48353583 390.60112782 55.31037254 409.46035992 40.23046875 425.59375 C38.34778363 427.62480785 36.53222994 429.68963216 34.72265625 431.78515625 C25.41360818 442.45495825 15.22949625 452.37325871 4 461 C3.03320312 461.77214844 2.06640625 462.54429687 1.0703125 463.33984375 C-40.16286562 495.88423496 -88.27348006 515.73741398 -140 524 C-140.82693359 524.13277344 -141.65386719 524.26554688 -142.50585938 524.40234375 C-215.65230396 535.35277868 -295.11401615 515.0517861 -354.45922852 471.34301758 C-357.67062893 468.93456331 -360.84461613 466.48126296 -364 464 C-364.99515625 463.21882812 -365.9903125 462.43765625 -367.015625 461.6328125 C-382.71403877 449.02922888 -397.61834003 434.89418762 -410 419 C-410.87857473 417.91013941 -411.75886862 416.82166308 -412.640625 415.734375 C-422.95885876 402.93548251 -431.72156659 389.29660251 -439.84912109 375.01855469 C-440.57238288 373.75000814 -441.30108951 372.48453476 -442.03759766 371.22363281 C-463.59870195 334.23416995 -475.98666234 287.58741247 -476.203125 244.7421875 C-476.21013931 243.80409241 -476.21715363 242.86599731 -476.22438049 241.8994751 C-476.24177033 238.89126719 -476.24823224 235.88325632 -476.25 232.875 C-476.25067474 231.84566345 -476.25134949 230.8163269 -476.25204468 229.75579834 C-476.23594072 214.2938902 -475.78171095 199.24920373 -473 184 C-472.82839355 183.02627441 -472.65678711 182.05254883 -472.47998047 181.04931641 C-463.86133134 133.2577902 -444.18226805 88.11920832 -414 50 C-413.22011719 49.00742188 -412.44023437 48.01484375 -411.63671875 46.9921875 C-399.02149496 31.26237027 -384.86823831 16.45409773 -369 4 C-367.85851344 3.05991269 -366.71931859 2.11703807 -365.58203125 1.171875 C-356.50948114 -6.32025629 -347.05328895 -12.89104092 -337 -19 C-336.38141113 -19.37688965 -335.76282227 -19.7537793 -335.12548828 -20.14208984 C-308.37837793 -36.23367121 -280.08803999 -47.16313888 -250 -55 C-249.19739746 -55.21285645 -248.39479492 -55.42571289 -247.56787109 -55.64501953 C-163.39779523 -77.62100712 -67.3837054 -53.31713862 0 0 Z " fill="#E7E5E2" transform="translate(476,62)"/>
<path d="M0 0 C0.68087954 -0.00382555 1.36175909 -0.00765109 2.06327134 -0.01159257 C4.33175556 -0.02186453 6.59998392 -0.01794166 8.8684845 -0.01396179 C10.49995151 -0.01831131 12.13141647 -0.02349525 13.76287842 -0.02944946 C18.18409424 -0.04282026 22.60522449 -0.04342062 27.02645659 -0.04088616 C30.71719434 -0.03981584 34.40791481 -0.04470103 38.09864885 -0.04949158 C46.80156297 -0.06057863 55.50443392 -0.06102771 64.20735168 -0.05497742 C73.19155501 -0.04892787 82.1756021 -0.0612753 91.15977877 -0.08254749 C98.87284412 -0.10013977 106.58585961 -0.10616888 114.29894429 -0.10290974 C118.90611829 -0.10109404 123.51318067 -0.1037622 128.12033653 -0.11762428 C132.44845925 -0.13016061 136.77633717 -0.12829861 141.10445595 -0.11521339 C142.6947958 -0.11283943 144.28515267 -0.11561148 145.87547302 -0.12383652 C148.04202541 -0.13423632 150.20774586 -0.12625926 152.37426758 -0.11352539 C153.58785037 -0.11369313 154.80143316 -0.11386087 156.05179119 -0.1140337 C158.99665833 0.26069641 158.99665833 0.26069641 160.88455677 1.63244343 C162.50841474 4.00997052 162.45235292 5.44148725 161.99665833 8.26069641 C160.4712677 10.36958313 160.4712677 10.36958313 158.34040833 12.44038391 C157.17638489 13.587005 157.17638489 13.587005 155.98884583 14.75679016 C155.16642395 15.54182922 154.34400208 16.32686829 153.49665833 17.13569641 C152.70517395 17.9130011 151.91368958 18.69030579 151.09822083 19.49116516 C147.48571685 23.01483707 143.82354166 26.44751554 139.99665833 29.73725891 C135.25218334 33.83486754 130.89178873 38.29501816 126.49665833 42.76069641 C121.41399742 47.92494096 116.30925519 52.95033595 110.80964661 57.67036438 C108.13401461 60.01739734 105.67237365 62.52802623 103.18415833 65.07319641 C96.22291564 72.19153343 96.22291564 72.19153343 91.6103363 72.45169067 C90.18508756 72.4356007 88.75993763 72.40862486 87.33503723 72.37324524 C85.71936753 72.35078073 84.10369562 72.32847482 82.48802185 72.30630493 C81.63092243 72.29102564 80.77382301 72.27574635 79.89075089 72.26000404 C75.33387116 72.18778428 70.77666743 72.17780141 66.21931458 72.15718079 C60.42743849 72.12765862 54.63758171 72.08017968 48.84675598 71.96260071 C44.1610713 71.86909776 39.47872378 71.84033857 34.79217148 71.85298729 C33.0163753 71.84622436 31.24049664 71.8164726 29.46551895 71.76214027 C18.54610877 71.35526145 18.54610877 71.35526145 9.07106018 76.11845398 C6.22225454 78.80810511 3.70093821 81.70858783 1.25104904 84.76154137 C-0.40333584 86.73873987 -2.26641492 88.37478153 -4.25334167 90.01069641 C-8.75624256 93.84335418 -12.86003931 98.04668923 -17.00334167 102.26069641 C-23.05022624 108.41077013 -29.24474962 114.23081158 -35.8256073 119.8039093 C-38.38350328 122.12023449 -39.88593116 123.86653255 -40.87834167 127.19819641 C-39.72695966 131.22803345 -37.8291836 132.57358551 -34.61271667 135.15132141 C-31.47377448 137.68878965 -28.52365228 140.39136705 -25.56584167 143.13569641 C-25.00461609 143.65365784 -24.4433905 144.17161926 -23.86515808 144.70527649 C-19.82136787 148.45385241 -15.91706282 152.32182086 -12.04631042 156.24897766 C-9.48039087 158.77564797 -6.77188406 161.10216407 -4.03849792 163.44429016 C-1.01259797 166.14494943 1.80160015 169.04272532 4.62556458 171.95210266 C5.40802551 172.7139386 6.19048645 173.47577454 6.99665833 174.26069641 C7.38011414 174.76142166 7.76356995 175.26214691 8.15864563 175.77804565 C11.01276476 178.97879518 13.24458387 180.14828487 17.5244751 180.78799438 C22.04537956 181.03508978 26.56215321 180.93572693 31.08650208 180.84663391 C32.75800041 180.83543165 34.42951856 180.82689633 36.1010437 180.82090759 C40.48274424 180.79808977 44.86323556 180.73922942 49.24446106 180.67268372 C53.72224065 180.61110764 58.20021725 180.58386004 62.67829895 180.55366516 C71.45169992 180.489477 80.223889 180.3840116 88.99665833 180.26069641 C89.32665833 173.99069641 89.65665833 167.72069641 89.99665833 161.26069641 C86.62012024 161.29211731 86.62012024 161.29211731 83.17536926 161.32417297 C75.73950616 161.3904403 68.30363003 161.43463067 60.8675499 161.4679451 C56.35883215 161.48882343 51.85041684 161.5171453 47.34187317 161.56245422 C42.9911578 161.60590361 38.64073339 161.62983167 34.28981781 161.64020538 C32.62958953 161.64759843 30.96937724 161.66203539 29.30927277 161.68361664 C26.98433984 161.71263962 24.66061034 161.71665304 22.33552551 161.71479797 C21.64860123 161.72917908 20.96167694 161.74356018 20.25393677 161.75837708 C16.92845476 161.7296513 15.25209871 161.45631321 12.57972717 159.4098053 C10.99665833 157.26069641 10.99665833 157.26069641 10.32868958 154.42085266 C11.32526544 149.70605805 14.1125103 147.75622996 17.68415833 144.69819641 C19.1498982 143.38830056 20.61193798 142.07425638 22.07087708 140.75679016 C23.25689514 139.68920471 23.25689514 139.68920471 24.46687317 138.60005188 C30.03782744 133.44845144 35.31082783 127.98577963 40.63606262 122.5827179 C44.97436 118.20368533 49.36576143 114.00097866 54.04499817 109.98970032 C57.63184687 106.81205928 60.95397167 103.36674825 64.30915833 99.94819641 C65.69872271 98.53311202 67.09055532 97.12025043 68.48493958 95.70991516 C69.08862366 95.09462952 69.69230774 94.47934387 70.31428528 93.84541321 C74.39455282 90.00199184 77.66680767 89.96389625 82.98469543 89.97016907 C84.20466469 89.96009323 84.20466469 89.96009323 85.44927979 89.94981384 C88.14091582 89.93079795 90.83230303 89.92690798 93.52400208 89.92475891 C95.39343367 89.91833392 97.26286424 89.91160578 99.1322937 89.90458679 C103.05219352 89.89260536 106.97200515 89.8889069 110.891922 89.89009094 C115.9171306 89.89029428 120.94177461 89.86298068 125.96684933 89.82854652 C129.82815148 89.80632051 133.68931677 89.80225206 137.55067635 89.80331039 C139.40346283 89.80094839 141.25625275 89.79209124 143.10897636 89.77664566 C145.69946342 89.75707049 148.28872023 89.76278961 150.87922668 89.77485657 C151.64559448 89.76361755 152.41196228 89.75237854 153.20155334 89.74079895 C156.46963889 89.77952458 158.53502563 89.91660596 161.19302464 91.89781761 C163.5326736 94.96291169 163.49946047 96.72658602 163.5045929 100.56123352 C163.52151184 102.50448013 163.52151184 102.50448013 163.53877258 104.48698425 C163.53099553 105.92067179 163.52280287 107.35435712 163.51423645 108.78804016 C163.51965716 110.29936905 163.52677953 111.81069264 163.53547668 113.32200623 C163.55371935 117.42534453 163.5466388 121.52828076 163.53396034 125.63162613 C163.52383748 129.92457925 163.53322403 134.21749781 163.539505 138.51045227 C163.54678351 145.71990646 163.53718844 152.92919678 163.5181427 160.1386261 C163.4963735 168.47527798 163.50342473 176.81153857 163.52544832 185.14818096 C163.5435966 192.30413762 163.54616347 199.45997644 163.53569365 206.61594868 C163.52945553 210.89065274 163.52863172 215.16517285 163.5418396 219.43986511 C163.55338924 223.45863549 163.54538907 227.4769011 163.52226257 231.49561691 C163.51697067 232.9710341 163.51849755 234.44649373 163.52731323 235.92189407 C163.53823135 237.93463379 163.52211648 239.94746626 163.5045929 241.9601593 C163.50233074 243.65030907 163.50233074 243.65030907 163.50002289 245.37460327 C162.99665833 248.26069641 162.99665833 248.26069641 161.38101101 250.6223135 C158.21314025 252.79908263 156.17162512 252.76636688 152.33908081 252.77536011 C151.67104933 252.78230564 151.00301784 252.78925116 150.31474298 252.79640716 C148.07694574 252.81469823 145.84020622 252.80440759 143.60237122 252.79414368 C141.99727078 252.8012017 140.39217699 252.80994623 138.78709412 252.82025146 C134.42491825 252.84278348 130.06310464 252.83979467 125.70089269 252.83092999 C122.05343048 252.82581938 118.40603631 252.83311431 114.7585811 252.84040207 C106.14346248 252.85741744 97.52852085 252.85382383 88.91340637 252.83711243 C80.04860981 252.82023776 71.18430734 252.83595749 62.31956488 252.86833531 C54.69552804 252.89511884 47.07164415 252.90228221 39.44756502 252.89382023 C34.90033712 252.88891049 30.35340552 252.89099817 25.80621529 252.91160774 C21.52060481 252.9300995 17.23569664 252.92384342 12.95012283 252.89940834 C11.38656519 252.89444047 9.82295284 252.89778419 8.25943947 252.91055679 C-6.65562777 253.02265012 -18.60491972 249.24954252 -30.00334167 239.26069641 C-32.31686368 236.86065244 -34.51082802 234.41500644 -36.64006042 231.85054016 C-38.54974218 229.75778148 -40.4105274 228.00139427 -42.55412292 226.17085266 C-48.71059677 220.87721525 -54.31442869 215.00652765 -60.01261902 209.23091125 C-65.28740198 203.89098635 -70.57104647 198.63849324 -76.28263855 193.75874329 C-78.82390443 191.54631317 -81.14914994 189.17161566 -83.50334167 186.76069641 C-86.55433012 183.66355239 -89.62677677 180.64118508 -92.94084167 177.82319641 C-98.1183375 173.40520927 -102.85382253 168.52085888 -107.60905457 163.65742493 C-108.91535588 162.34883627 -110.2743257 161.0934277 -111.63615417 159.84272766 C-114.37446676 156.85588835 -116.05480033 153.73419322 -117.69084167 150.07319641 C-117.99191833 149.40683167 -118.292995 148.74046692 -118.60319519 148.0539093 C-123.77356292 136.24754655 -125.53902859 121.59458188 -121.00334167 109.26069641 C-117.86964242 102.05641874 -114.87803837 95.65974294 -109.00334167 90.26069641 C-107.81139295 89.14278495 -106.62003626 88.02424207 -105.42912292 86.90522766 C-104.44093567 85.98471619 -104.44093567 85.98471619 -103.43278503 85.04560852 C-95.53166517 77.6839262 -87.81687323 70.16507364 -80.24479675 62.46504211 C-77.05291387 59.2349375 -73.85869605 56.0885166 -70.39396667 53.15132141 C-63.66510409 47.3618699 -57.55556567 40.87792559 -51.31584167 34.57319641 C-48.73153867 31.96218884 -46.14386116 29.35459311 -43.55412292 26.74897766 C-42.97068619 26.15724258 -42.38724945 25.56550751 -41.78613281 24.95584106 C-38.67134896 21.82249881 -35.48793132 18.98910059 -32.00334167 16.26069641 C-30.9534126 14.99256692 -29.93119155 13.70088104 -28.94084167 12.38569641 C-22.02899235 4.26124194 -10.46355234 0.01768343 0 0 Z " fill="#010101" transform="translate(356.0033416748047,168.7393035888672)"/>
<path d="M0 0 C0.658862 -0.00525696 1.317724 -0.01051392 1.99655151 -0.01593018 C4.17372365 -0.02913053 6.35016422 -0.02039267 8.52734375 -0.01025391 C10.04044739 -0.01227465 11.55355008 -0.01518609 13.06665039 -0.01895142 C16.23756179 -0.02337479 19.40821964 -0.01694352 22.57910156 -0.00292969 C26.64480267 0.01416249 30.70990968 0.00432134 34.77558899 -0.01364708 C37.89998862 -0.02448472 41.02424726 -0.02103873 44.14865112 -0.0132637 C45.647777 -0.01126163 47.14691565 -0.01372125 48.64602661 -0.02070236 C50.74092541 -0.02831687 52.83486053 -0.0167143 54.9296875 0 C56.12198975 0.00238678 57.31429199 0.00477356 58.54272461 0.00723267 C61.46484375 0.38818359 61.46484375 0.38818359 63.12492847 1.46709728 C65.18302492 4.41786663 64.8331346 6.94108447 64.8256073 10.5065155 C64.82817057 11.2359511 64.83073385 11.96538669 64.8333748 12.7169264 C64.83832682 15.1677084 64.8217969 17.61787801 64.80541992 20.06860352 C64.80457395 21.82271815 64.8050482 23.57683386 64.80674744 25.33094788 C64.80761 30.09930579 64.78994207 34.86743841 64.76902556 39.63574386 C64.75030219 44.61655146 64.74851175 49.59736393 64.74494934 54.57820129 C64.7356161 64.01296502 64.71098502 73.44762475 64.68090087 82.88234264 C64.64739664 93.62221741 64.63088086 104.36209708 64.61581457 115.10201108 C64.58443658 137.19746001 64.53165125 159.29281526 64.46484375 181.38818359 C66.3416684 181.3515435 66.3416684 181.3515435 68.25640869 181.31416321 C80.08405137 181.09056851 91.91126193 180.92599369 103.74054337 180.8182497 C109.82141881 180.76099191 115.9005799 180.68341353 121.98046875 180.55834961 C127.85506619 180.43827347 133.72802168 180.37294318 139.60375214 180.34453392 C141.83813055 180.32430632 144.07242532 180.28480384 146.30609894 180.22515297 C165.64080875 179.72964536 165.64080875 179.72964536 172.17431259 185.23028088 C174.4611072 187.47344212 176.47763243 189.8788241 178.46484375 192.38818359 C179.61992721 193.55607491 180.78891548 194.71065005 181.98046875 195.84130859 C182.8828125 196.76427734 183.78515625 197.68724609 184.71484375 198.63818359 C187.82493867 201.81856314 190.95421256 204.84442156 194.32421875 207.74755859 C199.29903856 212.053099 203.86069817 216.7331758 208.46484375 221.42724609 C212.38204636 225.39035342 216.3981315 229.15387425 220.6171875 232.79394531 C223.12317175 234.95621766 225.5640696 237.17217109 227.96484375 239.45068359 C228.82078125 240.24603516 229.67671875 241.04138672 230.55859375 241.86083984 C232.46484375 244.38818359 232.46484375 244.38818359 232.87109375 247.57177734 C232.46484375 250.38818359 232.46484375 250.38818359 230.46484375 252.38818359 C228.04226089 252.59203364 225.73300906 252.67066576 223.3086853 252.66233826 C222.56280832 252.66757494 221.81693134 252.67281161 221.04845202 252.67820698 C218.53534037 252.69327369 216.02243115 252.69391362 213.50927734 252.69458008 C211.71230218 252.70219788 209.9153303 252.71062471 208.11836243 252.71980286 C203.22292836 252.74181105 198.3275568 252.75055692 193.43207884 252.7556293 C190.36952313 252.75926992 187.30698382 252.7655089 184.24443436 252.77263069 C173.54706351 252.79716138 162.84974128 252.81018181 152.15234375 252.8137207 C142.2061532 252.8173436 132.26027361 252.84713987 122.31417787 252.88912529 C113.76277985 252.92394749 105.21148407 252.93927132 96.6600157 252.93996674 C91.55876071 252.94075646 86.45782118 252.94935146 81.35663986 252.9779644 C76.54499815 253.00434486 71.7339286 253.00624 66.92224693 252.99030876 C65.16804051 252.98850916 63.41379972 252.99504824 61.65966606 253.01112747 C42.04748008 253.17974779 24.98277477 248.2083966 10.65234375 234.13818359 C5.35361054 228.73297834 1.11670071 223.03940434 -2.53515625 216.38818359 C-2.93089844 215.73849609 -3.32664062 215.08880859 -3.734375 214.41943359 C-10.46707556 202.60592182 -9.97165873 188.45637267 -9.92333984 175.31323242 C-9.92741372 173.43428239 -9.93276015 171.55533477 -9.93927002 169.6763916 C-9.95284205 164.61720242 -9.94768992 159.55819856 -9.93813276 154.49900651 C-9.93049575 149.19266683 -9.93759179 143.88634218 -9.94229126 138.58000183 C-9.94773185 129.6842465 -9.9405964 120.78856619 -9.92626953 111.89282227 C-9.90989101 101.6042388 -9.91527595 91.31583321 -9.93174875 81.02725393 C-9.94534627 72.18027337 -9.94729344 63.33334644 -9.93943274 54.48635882 C-9.93475377 49.20750328 -9.93413869 43.92873154 -9.94404221 38.64988136 C-9.95268626 33.6978606 -9.94673711 28.74607074 -9.92935944 23.79407501 C-9.92538323 21.97474998 -9.92654793 20.15540559 -9.93314743 18.33608818 C-9.941307 15.85907308 -9.93111039 13.38280509 -9.91610718 10.90583801 C-9.92279934 10.18095509 -9.92949151 9.45607216 -9.93638647 8.70922309 C-9.90232086 5.82369504 -9.85824307 3.85698165 -8.19397926 1.44213963 C-5.53300265 -0.24854849 -3.11775776 0.0062412 0 0 Z " fill="#000000" transform="translate(80.53515625,168.61181640625)"/>
<path d="M0 0 C0.66 0.33 1.32 0.66 2 1 C-2.29 5.29 -6.58 9.58 -11 14 C-11.33 13.01 -11.66 12.02 -12 11 C-10.37807179 9.35113941 -8.75236228 7.7059976 -7.125 6.0625 C-6.22007812 5.14597656 -5.31515625 4.22945313 -4.3828125 3.28515625 C-2 1 -2 1 0 0 Z " fill="#D7D6D2" transform="translate(330,279)"/>
</svg>
